<svg width="127" height="127" viewBox="0 0 127 127" fill="none" xmlns="http://www.w3.org/2000/svg">
<rect width="127" height="127" fill="#F1F1F1"/>
<path d="M30.9368 95.914C31.0395 96.0386 31.1684 96.139 31.3144 96.2079C31.4604 96.2768 31.6198 96.3125 31.7812 96.3125H95.2187C95.3802 96.3125 95.5396 96.2768 95.6856 96.2079C95.8316 96.139 95.9605 96.0386 96.0632 95.914C96.1658 95.7893 96.2395 95.6435 96.2791 95.487C96.3187 95.3305 96.3231 95.1672 96.2921 95.0088L86.4484 44.6962C86.3997 44.4473 86.266 44.2231 86.0702 44.0619C85.8744 43.9006 85.6286 43.8125 85.375 43.8125H76.625V38.3438C76.6256 37.1023 76.3242 35.8793 75.7467 34.7804C75.1693 33.6814 74.3331 32.7394 73.3104 32.0357C72.2876 31.332 71.1091 30.8877 69.8763 30.7411C68.6435 30.5944 67.3936 30.7499 66.2344 31.1942C65.0751 30.7499 63.8252 30.5944 62.5924 30.7411C61.3597 30.8877 60.1811 31.332 59.1584 32.0357C58.1356 32.7394 57.2995 33.6814 56.722 34.7804C56.1446 35.8793 55.8431 37.1023 55.8437 38.3438V43.8125H41.625C41.3714 43.8125 41.1256 43.9006 40.9298 44.0619C40.734 44.2231 40.6003 44.4473 40.5516 44.6962L30.7079 95.0088C30.6769 95.1672 30.6813 95.3305 30.7209 95.487C30.7605 95.6435 30.8342 95.7893 30.9368 95.914ZM44.9062 85.7051L55.0103 94.125H34.8022L44.9062 85.7051ZM84.4745 46L93.8903 94.125H58.9317L49.516 46H61.3125V52.5625H59.125V54.75H65.6875V52.5625H63.5V46H74.4375V52.5625H72.25V54.75H78.8125V52.5625H76.625V46H84.4745ZM66.2344 33.6107C67.0651 34.0906 67.7551 34.7805 68.235 35.6113C68.715 36.442 68.968 37.3843 68.9687 38.3438V43.8125H63.5V38.3438C63.5007 37.3843 63.7538 36.442 64.2337 35.6113C64.7136 34.7805 65.4036 34.0906 66.2344 33.6107ZM68.9687 32.875C70.4186 32.8767 71.8087 33.4533 72.8339 34.4786C73.8591 35.5038 74.4358 36.8939 74.4375 38.3438V43.8125H71.1562V38.3438C71.1567 37.3252 70.9532 36.3168 70.5578 35.3781C70.1624 34.4393 69.5831 33.5892 68.854 32.8779C68.8923 32.8771 68.9303 32.875 68.9687 32.875ZM58.0312 38.3438C58.0329 36.8939 58.6096 35.5038 59.6348 34.4786C60.6601 33.4533 62.0501 32.8767 63.5 32.875C63.5385 32.875 63.5764 32.8771 63.6147 32.8779C62.8857 33.5892 62.3064 34.4393 61.911 35.3781C61.5156 36.3168 61.3121 37.3252 61.3125 38.3438V43.8125H58.0312V38.3438ZM42.5255 46H43.8125V64.5938H46V46H47.287L56.3668 92.4081L46 83.769V72.25H43.8125V83.769L33.4456 92.4081L42.5255 46Z" fill="#CCCCCC"/>
<path d="M43.8125 66.5078C43.8125 65.9038 44.3022 65.4141 44.9062 65.4141C45.5103 65.4141 46 65.9038 46 66.5078V70.3359C46 70.94 45.5103 71.4297 44.9062 71.4297C44.3022 71.4297 43.8125 70.94 43.8125 70.3359V66.5078Z" fill="#CCCCCC"/>
<path d="M64.5938 75.5312C64.5938 74.9272 65.0834 74.4375 65.6875 74.4375H68.9688C69.5728 74.4375 70.0625 74.9272 70.0625 75.5312C70.0625 76.1353 69.5728 76.625 68.9688 76.625H65.6875C65.0834 76.625 64.5938 76.1353 64.5938 75.5312Z" fill="#CCCCCC"/>
<path d="M72.25 75.5312C72.25 74.9272 72.7397 74.4375 73.3438 74.4375H82.0938C82.6978 74.4375 83.1875 74.9272 83.1875 75.5312C83.1875 76.1353 82.6978 76.625 82.0938 76.625H73.3438C72.7397 76.625 72.25 76.1353 72.25 75.5312Z" fill="#CCCCCC"/>
<path d="M67.3281 71.1562C67.3281 70.5522 67.8178 70.0625 68.4219 70.0625H80.043C80.647 70.0625 81.1367 70.5522 81.1367 71.1562C81.1367 71.7603 80.647 72.25 80.043 72.25H68.4219C67.8178 72.25 67.3281 71.7603 67.3281 71.1562Z" fill="#CCCCCC"/>
<path d="M62.4062 79.9062C62.4062 79.3022 62.8959 78.8125 63.5 78.8125H74.4375C75.0416 78.8125 75.5312 79.3022 75.5312 79.9062C75.5312 80.5103 75.0416 81 74.4375 81H63.5C62.8959 81 62.4062 80.5103 62.4062 79.9062Z" fill="#CCCCCC"/>
<path d="M77.7188 79.9062C77.7188 79.3022 78.2084 78.8125 78.8125 78.8125H85.375C85.9791 78.8125 86.4688 79.3022 86.4688 79.9062C86.4688 80.5103 85.9791 81 85.375 81H78.8125C78.2084 81 77.7188 80.5103 77.7188 79.9062Z" fill="#CCCCCC"/>
</svg>
