<svg width="208" height="96" viewBox="0 0 208 96" fill="none" xmlns="http://www.w3.org/2000/svg">
<g filter="url(#filter0_d_12427_19140)">
<path d="M85.7035 8.91259C86.1628 6.75172 88.2869 5.37234 90.4477 5.83165L131.565 14.5714C133.726 15.0307 135.105 17.1548 134.646 19.3157L125.075 64.3456L76.1321 53.9426L85.7035 8.91259Z" fill="#EFEFEF"/>
<path d="M76.1328 53.9434L125.075 64.3464L122.796 75.0709C122.337 77.2317 120.212 78.6111 118.052 78.1518L76.9342 69.412C74.7733 68.9527 73.394 66.8287 73.8533 64.6678L76.1328 53.9434Z" fill="#F8F8F8"/>
<g opacity="0.3">
<path d="M82.7737 59.3638L81.452 61.1121L79.3312 60.9818C78.9552 60.9629 78.7161 61.4003 78.9228 61.7341L80.0715 63.5499L79.272 65.5923C79.1354 65.96 79.4649 66.3352 79.8237 66.2284L81.8697 65.6104L83.4735 67.0041C83.7579 67.2477 84.2115 67.0389 84.2363 66.6475L84.3366 64.4564L86.1245 63.2649C86.4491 63.044 86.4086 62.5471 86.0574 62.4115L84.081 61.6709L83.5707 59.5332C83.4883 59.1647 83.0159 59.0491 82.7737 59.3638Z" fill="#ADADAD"/>
<path d="M91.0822 61.1294L89.7606 62.8778L87.6398 62.7474C87.2638 62.7285 87.0247 63.1659 87.2314 63.4998L88.3801 65.3155L87.5806 67.3579C87.444 67.7256 87.7735 68.1008 88.1323 67.994L90.1783 67.3761L91.7821 68.7698C92.0665 69.0133 92.5201 68.8046 92.5449 68.4131L92.6452 66.2221L94.4331 65.0305C94.7577 64.8096 94.7172 64.3128 94.366 64.1771L92.3896 63.4366L91.8793 61.2988C91.7969 60.9304 91.3245 60.8147 91.0822 61.1294Z" fill="#ADADAD"/>
<path d="M99.3908 62.895L98.0692 64.6434L95.9484 64.513C95.5724 64.4941 95.3333 64.9315 95.54 65.2654L96.6887 67.0811L95.8892 69.1236C95.7526 69.4912 96.0821 69.8664 96.4409 69.7596L98.4869 69.1417L100.091 70.5354C100.375 70.7789 100.829 70.5702 100.853 70.1787L100.954 67.9877L102.742 66.7962C103.066 66.5753 103.026 66.0784 102.675 65.9427L100.698 65.2022L100.188 63.0644C100.105 62.696 99.6331 62.5803 99.3908 62.895Z" fill="#ADADAD"/>
<path d="M107.696 64.6606L106.374 66.409L104.253 66.2786C103.877 66.2598 103.638 66.6972 103.845 67.031L104.993 68.8467L104.194 70.8892C104.057 71.2569 104.387 71.632 104.746 71.5252L106.792 70.9073L108.395 72.301C108.68 72.5446 109.133 72.3358 109.158 71.9444L109.258 69.7533L111.046 68.5618C111.371 68.3409 111.33 67.844 110.979 67.7083L109.003 66.9678L108.493 64.8301C108.41 64.4616 107.938 64.3459 107.696 64.6606Z" fill="#ADADAD"/>
<path d="M116.008 66.4282L114.686 68.1766L112.566 68.0462C112.19 68.0273 111.95 68.4648 112.157 68.7986L113.306 70.6143L112.506 72.6568C112.37 73.0244 112.699 73.3996 113.058 73.2928L115.104 72.6749L116.708 74.0686C116.992 74.3121 117.446 74.1034 117.471 73.7119L117.571 71.5209L119.359 70.3294C119.684 70.1085 119.643 69.6116 119.292 69.4759L117.315 68.7354L116.805 66.5976C116.723 66.2292 116.25 66.1135 116.008 66.4282Z" fill="#ADADAD"/>
</g>
<path d="M101.378 23.0778C102.486 23.1207 103.581 23.4498 104.488 23.9794L106.058 28.0183L101.83 30.7769C101.727 30.8032 101.661 30.8854 101.678 31.0334C101.659 31.1254 101.639 31.2175 101.722 31.2833L105.907 37.1775C106.017 37.3453 106.203 37.3848 106.409 37.3322C106.577 37.2237 106.616 37.0395 106.563 36.8356L104.734 31.7311L109.696 29.1766C109.818 29.0582 109.894 28.93 109.877 28.782L109.435 25.6082C110.938 25.1579 112.586 25.1714 114.061 25.7735C117.159 26.9613 118.941 30.2273 118.256 33.4502L118.207 33.6804C117.796 35.6141 116.568 37.278 114.9 38.271L104.838 44.2646C104.444 44.5178 103.95 44.5572 103.486 44.4585C102.975 44.3498 102.54 44.113 102.283 43.7216L95.5284 34.1533C94.4087 32.568 94.0104 30.5584 94.4215 28.6247L94.4704 28.3945C95.1554 25.1716 98.0654 22.9029 101.378 23.0778Z" fill="#E2E2E2"/>
</g>
<g filter="url(#filter1_d_12427_19140)">
<path d="M147.704 8.91259C148.163 6.75172 150.287 5.37234 152.448 5.83165L193.565 14.5714C195.726 15.0307 197.105 17.1548 196.646 19.3157L187.075 64.3456L138.132 53.9426L147.704 8.91259Z" fill="#EFEFEF"/>
<path d="M138.133 53.9434L187.075 64.3464L184.796 75.0709C184.337 77.2317 182.212 78.6111 180.052 78.1518L138.934 69.412C136.773 68.9527 135.394 66.8287 135.853 64.6678L138.133 53.9434Z" fill="#F8F8F8"/>
<g opacity="0.3">
<path d="M144.77 59.3638L143.448 61.1121L141.327 60.9818C140.951 60.9629 140.712 61.4003 140.919 61.7341L142.068 63.5499L141.268 65.5923C141.131 65.96 141.461 66.3352 141.82 66.2284L143.866 65.6104L145.47 67.0041C145.754 67.2477 146.208 67.0389 146.232 66.6475L146.333 64.4564L148.121 63.2649C148.445 63.044 148.405 62.5471 148.054 62.4115L146.077 61.6709L145.567 59.5332C145.484 59.1647 145.012 59.0491 144.77 59.3638Z" fill="#ADADAD"/>
<path d="M153.078 61.1294L151.757 62.8778L149.636 62.7474C149.26 62.7285 149.021 63.1659 149.228 63.4998L150.376 65.3155L149.577 67.3579C149.44 67.7256 149.77 68.1008 150.128 67.994L152.174 67.3761L153.778 68.7698C154.063 69.0133 154.516 68.8046 154.541 68.4131L154.641 66.2221L156.429 65.0305C156.754 64.8096 156.713 64.3128 156.362 64.1771L154.386 63.4366L153.875 61.2988C153.793 60.9304 153.321 60.8147 153.078 61.1294Z" fill="#ADADAD"/>
<path d="M161.387 62.895L160.065 64.6434L157.945 64.513C157.569 64.4941 157.329 64.9315 157.536 65.2654L158.685 67.0811L157.885 69.1236C157.749 69.4912 158.078 69.8664 158.437 69.7596L160.483 69.1417L162.087 70.5354C162.371 70.7789 162.825 70.5702 162.85 70.1787L162.95 67.9877L164.738 66.7962C165.062 66.5753 165.022 66.0784 164.671 65.9427L162.694 65.2022L162.184 63.0644C162.102 62.696 161.629 62.5803 161.387 62.895Z" fill="#ADADAD"/>
<path d="M169.692 64.6606L168.37 66.409L166.249 66.2786C165.873 66.2598 165.634 66.6972 165.841 67.031L166.99 68.8467L166.19 70.8892C166.053 71.2569 166.383 71.632 166.742 71.5252L168.788 70.9073L170.391 72.301C170.676 72.5446 171.129 72.3358 171.154 71.9444L171.255 69.7533L173.042 68.5618C173.367 68.3409 173.327 67.844 172.975 67.7083L170.999 66.9678L170.489 64.8301C170.406 64.4616 169.934 64.3459 169.692 64.6606Z" fill="#ADADAD"/>
<path d="M178.004 66.4282L176.682 68.1766L174.562 68.0462C174.186 68.0273 173.947 68.4648 174.153 68.7986L175.302 70.6143L174.502 72.6568C174.366 73.0244 174.695 73.3996 175.054 73.2928L177.1 72.6749L178.704 74.0686C178.988 74.3121 179.442 74.1034 179.467 73.7119L179.567 71.5209L181.355 70.3294C181.68 70.1085 181.639 69.6116 181.288 69.4759L179.311 68.7354L178.801 66.5976C178.719 66.2292 178.246 66.1135 178.004 66.4282Z" fill="#ADADAD"/>
</g>
<path d="M175.663 43.8183L171.971 38.1328C173.358 36.7941 174.321 34.9567 174.496 32.7886C174.752 29.0859 172.436 25.5716 168.98 24.3469C163.807 22.5532 158.358 26.0915 157.893 31.5467C157.606 35.202 159.875 38.7471 163.362 40.0191C165.413 40.7411 167.483 40.6094 169.31 39.8949L172.963 45.5721C173.463 46.291 174.44 46.4987 175.19 46.0455C175.909 45.5449 176.117 44.568 175.663 43.8183ZM161.173 31.1004C161.755 28.3653 164.464 26.5724 167.238 27.1621C169.973 27.7435 171.758 30.4914 171.176 33.2266C170.587 36.0008 167.847 37.7463 165.112 37.1649C162.338 36.5752 160.584 33.8746 161.173 31.1004Z" fill="#E2E2E2"/>
</g>
<g filter="url(#filter2_d_12427_19140)">
<path d="M23.684 8.91259C24.1433 6.75172 26.2674 5.37234 28.4282 5.83165L69.5456 14.5714C71.7065 15.0307 73.0858 17.1548 72.6265 19.3157L63.0551 64.3456L14.1126 53.9426L23.684 8.91259Z" fill="#EFEFEF"/>
<path d="M14.1133 53.9434L63.0558 64.3464L60.7763 75.0709C60.317 77.2317 58.1929 78.6111 56.0321 78.1518L14.9147 69.412C12.7538 68.9527 11.3744 66.8287 11.8337 64.6678L14.1133 53.9434Z" fill="#F8F8F8"/>
<g opacity="0.3">
<path d="M20.7502 59.3638L19.4286 61.1121L17.3078 60.9818C16.9318 60.9629 16.6927 61.4003 16.8994 61.7341L18.0481 63.5499L17.2486 65.5923C17.112 65.96 17.4414 66.3352 17.8003 66.2284L19.8463 65.6104L21.4501 67.0041C21.7345 67.2477 22.1881 67.0389 22.2128 66.6475L22.3132 64.4564L24.1011 63.2649C24.4257 63.044 24.3852 62.5471 24.034 62.4115L22.0575 61.6709L21.5473 59.5332C21.4648 59.1647 20.9925 59.0491 20.7502 59.3638Z" fill="#ADADAD"/>
<path d="M29.0588 61.1294L27.7372 62.8778L25.6164 62.7474C25.2404 62.7285 25.0013 63.1659 25.208 63.4998L26.3567 65.3155L25.5572 67.3579C25.4206 67.7256 25.75 68.1008 26.1089 67.994L28.1549 67.3761L29.7587 68.7698C30.0431 69.0133 30.4967 68.8046 30.5214 68.4131L30.6217 66.2221L32.4097 65.0305C32.7343 64.8096 32.6938 64.3128 32.3426 64.1771L30.3661 63.4366L29.8559 61.2988C29.7734 60.9304 29.3011 60.8147 29.0588 61.1294Z" fill="#ADADAD"/>
<path d="M37.3674 62.895L36.0458 64.6434L33.925 64.513C33.549 64.4941 33.3099 64.9315 33.5166 65.2654L34.6653 67.0811L33.8658 69.1236C33.7291 69.4912 34.0586 69.8664 34.4175 69.7596L36.4635 69.1417L38.0673 70.5354C38.3517 70.7789 38.8053 70.5702 38.83 70.1787L38.9303 67.9877L40.7182 66.7962C41.0429 66.5753 41.0024 66.0784 40.6512 65.9427L38.6747 65.2022L38.1645 63.0644C38.082 62.696 37.6097 62.5803 37.3674 62.895Z" fill="#ADADAD"/>
<path d="M45.6721 64.6606L44.3504 66.409L42.2297 66.2786C41.8537 66.2598 41.6145 66.6972 41.8213 67.031L42.97 68.8467L42.1704 70.8892C42.0338 71.2569 42.3633 71.632 42.7222 71.5252L44.7682 70.9073L46.372 72.301C46.6563 72.5446 47.11 72.3358 47.1347 71.9444L47.235 69.7533L49.0229 68.5618C49.3476 68.3409 49.307 67.844 48.9559 67.7083L46.9794 66.9678L46.4692 64.8301C46.3867 64.4616 45.9144 64.3459 45.6721 64.6606Z" fill="#ADADAD"/>
<path d="M53.9846 66.4282L52.6629 68.1766L50.5422 68.0462C50.1662 68.0273 49.927 68.4648 50.1338 68.7986L51.2825 70.6143L50.4829 72.6568C50.3463 73.0244 50.6758 73.3996 51.0347 73.2928L53.0807 72.6749L54.6845 74.0686C54.9688 74.3121 55.4225 74.1034 55.4472 73.7119L55.5475 71.5209L57.3354 70.3294C57.6601 70.1085 57.6195 69.6116 57.2684 69.4759L55.2919 68.7354L54.7817 66.5976C54.6992 66.2292 54.2269 66.1135 53.9846 66.4282Z" fill="#ADADAD"/>
</g>
<path d="M46.1241 24.526C51.8294 25.7387 55.4935 31.381 54.2808 37.0862C53.0595 42.8319 47.4258 46.4556 41.7206 45.2429C35.9749 44.0216 32.3426 38.4284 33.5639 32.6827C34.7766 26.9774 40.3784 23.3047 46.1241 24.526ZM43.0967 38.7689C44.4724 39.0613 45.6701 39.9925 46.4494 41.3C46.632 41.6349 47.0366 41.7209 47.331 41.5297C47.6658 41.3471 47.7519 40.9425 47.5607 40.6481C46.6306 39.0548 45.1927 37.8611 43.3719 37.4741C43.0077 37.3967 42.6557 37.6602 42.5869 37.9839C42.5095 38.348 42.7325 38.6915 43.0967 38.7689ZM41.0083 39.0439C41.1803 38.2347 40.3509 36.3667 39.9711 35.5671C39.8927 35.3389 39.6094 35.2787 39.445 35.4552C38.7728 36.0313 37.2958 37.409 37.1238 38.2183C36.9002 39.2703 37.5693 40.3006 38.6618 40.5328C39.7138 40.7565 40.7846 40.0959 41.0083 39.0439ZM46.2369 33.3465C46.0821 34.0748 46.5282 34.7617 47.2565 34.9165C47.9848 35.0713 48.6717 34.6252 48.8265 33.8969C48.9727 33.209 48.5353 32.4817 47.8069 32.3269C47.0786 32.1721 46.3831 32.6586 46.2369 33.3465ZM42.3525 32.5208C42.4987 31.8329 42.0612 31.1056 41.3329 30.9508C40.6046 30.796 39.9091 31.2825 39.7629 31.9704C39.6081 32.6987 40.0541 33.3856 40.7825 33.5404C41.5108 33.6952 42.1977 33.2491 42.3525 32.5208Z" fill="#E2E2E2"/>
</g>
<defs>
<filter id="filter0_d_12427_19140" x="62.7656" y="0.744141" width="82.9688" height="94.4961" filterUnits="userSpaceOnUse" color-interpolation-filters="sRGB">
<feFlood flood-opacity="0" result="BackgroundImageFix"/>
<feColorMatrix in="SourceAlpha" type="matrix" values="0 0 0 0 0 0 0 0 0 0 0 0 0 0 0 0 0 0 127 0" result="hardAlpha"/>
<feOffset dy="6"/>
<feGaussianBlur stdDeviation="5.5"/>
<feComposite in2="hardAlpha" operator="out"/>
<feColorMatrix type="matrix" values="0 0 0 0 0 0 0 0 0 0 0 0 0 0 0 0 0 0 0.06 0"/>
<feBlend mode="normal" in2="BackgroundImageFix" result="effect1_dropShadow_12427_19140"/>
<feBlend mode="normal" in="SourceGraphic" in2="effect1_dropShadow_12427_19140" result="shape"/>
</filter>
<filter id="filter1_d_12427_19140" x="124.766" y="0.744141" width="82.9688" height="94.4961" filterUnits="userSpaceOnUse" color-interpolation-filters="sRGB">
<feFlood flood-opacity="0" result="BackgroundImageFix"/>
<feColorMatrix in="SourceAlpha" type="matrix" values="0 0 0 0 0 0 0 0 0 0 0 0 0 0 0 0 0 0 127 0" result="hardAlpha"/>
<feOffset dy="6"/>
<feGaussianBlur stdDeviation="5.5"/>
<feComposite in2="hardAlpha" operator="out"/>
<feColorMatrix type="matrix" values="0 0 0 0 0 0 0 0 0 0 0 0 0 0 0 0 0 0 0.06 0"/>
<feBlend mode="normal" in2="BackgroundImageFix" result="effect1_dropShadow_12427_19140"/>
<feBlend mode="normal" in="SourceGraphic" in2="effect1_dropShadow_12427_19140" result="shape"/>
</filter>
<filter id="filter2_d_12427_19140" x="0.746094" y="0.744141" width="82.9688" height="94.4961" filterUnits="userSpaceOnUse" color-interpolation-filters="sRGB">
<feFlood flood-opacity="0" result="BackgroundImageFix"/>
<feColorMatrix in="SourceAlpha" type="matrix" values="0 0 0 0 0 0 0 0 0 0 0 0 0 0 0 0 0 0 127 0" result="hardAlpha"/>
<feOffset dy="6"/>
<feGaussianBlur stdDeviation="5.5"/>
<feComposite in2="hardAlpha" operator="out"/>
<feColorMatrix type="matrix" values="0 0 0 0 0 0 0 0 0 0 0 0 0 0 0 0 0 0 0.06 0"/>
<feBlend mode="normal" in2="BackgroundImageFix" result="effect1_dropShadow_12427_19140"/>
<feBlend mode="normal" in="SourceGraphic" in2="effect1_dropShadow_12427_19140" result="shape"/>
</filter>
</defs>
</svg>
